<svg xmlns="http://www.w3.org/2000/svg" viewBox="0 0 100 100" fill="#f97316">
  <circle cx="50" cy="50" r="45" fill="#f97316" />
  <path d="M50 5A45 45 0 1 0 95 50 45.05 45.05 0 0 0 50 5zm0 5a39.84 39.84 0 0 1 24.51 8.4l-1.55 1.55a2.5 2.5 0 0 0-.73 1.77v8.53a2.5 2.5 0 0 1-.73 1.77l-5.12 5.12a2.5 2.5 0 0 1-1.77.73h-8.53a2.5 2.5 0 0 0-1.77.73l-5.12 5.12a2.5 2.5 0 0 0-.73 1.77v4.82a2.5 2.5 0 0 1-.73 1.77l-8.94 8.94a2.5 2.5 0 0 0-.73 1.77v8.53a2.5 2.5 0 0 0 .73 1.77l5.12 5.12a2.5 2.5 0 0 0 1.77.73H50a39.9 39.9 0 0 1-32.95-17.38l3.07-3.07a2.5 2.5 0 0 0 .73-1.77v-8.53a2.5 2.5 0 0 1 .73-1.77l5.12-5.12a2.5 2.5 0 0 1 1.77-.73h8.53a2.5 2.5 0 0 0 1.77-.73l5.12-5.12a2.5 2.5 0 0 0 .73-1.77V25a2.5 2.5 0 0 1 .73-1.77l4.24-4.24A2.5 2.5 0 0 0 50 17.18v-5.01A40.11 40.11 0 0 1 50 10z" fill="#000" fill-opacity="0.2"/>
</svg>
